<?xml version="1.0"?>
<svg xmlns="http://www.w3.org/2000/svg" height="512px" viewBox="-64 0 512 512" width="512px" class=""><g><path d="m377.613281 444.523438-137.011719-206.421876c-13.269531-19.988281-40.230468-25.441406-60.222656-12.171874-19.992187 13.269531-25.441406 40.234374-12.171875 60.226562l137.007813 206.421875c8.363281 12.601563 22.167968 19.421875 36.238281 19.421875 8.25 0 16.59375-2.347656 23.984375-7.25 19.992188-13.273438 25.445312-40.234375 12.175781-60.226562zm0 0" fill="#d64b77" data-original="#D64B77" class="active-path" style="fill:#FF7A00" data-old_color="#d64b77"/><path d="m43.445312 0c-23.992187 0-43.445312 19.453125-43.445312 43.445312v425.105469c0 23.992188 19.453125 43.445313 43.445312 43.445313 23.996094 0 43.445313-19.453125 43.445313-43.445313v-425.105469c0-23.992187-19.449219-43.445312-43.445313-43.445312zm0 0" fill="#f283aa" data-original="#F283AA" class="" style="fill:#FF7A00" data-old_color="#f283aa"/><path d="m204.40625 0h-160.960938c-23.992187 0-43.445312 19.453125-43.445312 43.445312 0 23.996094 19.453125 43.445313 43.445312 43.445313h160.960938c36.332031 0 65.894531 29.5625 65.894531 65.898437 0 36.332032-29.5625 65.894532-65.894531 65.894532h-160.960938c-23.992187 0-43.445312 19.449218-43.445312 43.445312s19.453125 43.445313 43.445312 43.445313h160.960938c84.246094 0 152.785156-68.539063 152.785156-152.789063 0-84.246094-68.539062-152.785156-152.785156-152.785156zm0 0" fill="#f9cedc" data-original="#F9CEDC" class="" style="fill:#000000" data-old_color="#f9cedc"/><path d="m204.40625 0h-65.605469v86.890625h65.605469c36.332031 0 65.894531 29.5625 65.894531 65.898437 0 36.332032-29.5625 65.894532-65.894531 65.894532h-65.605469v86.890625h65.605469c84.246094 0 152.785156-68.539063 152.785156-152.789063 0-84.246094-68.539062-152.785156-152.785156-152.785156zm0 0" fill="#f283aa" data-original="#F283AA" class="" style="fill:#FF7A00" data-old_color="#f283aa"/></g> </svg>
